<?xml version="1.0" encoding="UTF-8"?>
<svg width="50px" height="57px" viewBox="0 0 50 57" version="1.1" xmlns="http://www.w3.org/2000/svg" xmlns:xlink="http://www.w3.org/1999/xlink">
    <title>1000x</title>
    <g id="Page-1" stroke="none" stroke-width="1" fill="none" fill-rule="evenodd">
        <g id="1000x">
            <path d="M50,41.6397555 L50,15.3602445 C50.0099263,14.5644181 49.5879249,13.8254177 48.8967986,13.4286512 L26.0968618,0.295047216 C25.4143082,-0.0983490719 24.5733675,-0.0983490719 23.8908139,0.295047216 L1.10320142,13.4286512 C0.419785328,13.8210743 -0.00101632996,14.5485864 0,15.3356382 L0,41.6397555 C-0.00992630341,42.4355819 0.412075148,43.1745823 1.10320142,43.5713488 L23.9031382,56.7049528 C24.5856918,57.0983491 25.4266325,57.0983491 26.1091861,56.7049528 L48.8967986,43.5713488 C49.5879249,43.1745823 50.0099263,42.4355819 50,41.6397555 Z" id="Path" fill="#50E3C2" fill-rule="nonzero"></path>
            <polygon id="Star" fill="#19463C" points="25 33 19.1221475 36.0901699 20.2447174 29.545085 15.4894348 24.9098301 22.0610737 23.954915 25 18 27.9389263 23.954915 34.5105652 24.9098301 29.7552826 29.545085 30.8778525 36.0901699"></polygon>
        </g>
    </g>
</svg>